<svg viewBox="0 0 24 24" width="24" height="24" xmlns="http://www.w3.org/2000/svg" xmlns:xlink="http://www.w3.org/1999/xlink" fill="currentColor" class="w-6 h-6"><defs><path d="M22 6v16H2V6h20zM3 5h18V4H3v1zm2-2h14V2H5v1z" id="browse-filled_svg__a"></path><path d="M22 6v16H2V6h20zM3 5h18V4H3v1zm2-2h14V2H5v1z" id="browse-filled_svg__a"></path><path d="M22 6v16H2V6h20zM3 5h18V4H3v1zm2-2h14V2H5v1z" id="browse-filled_svg__a"></path></defs><g fill="#FFFFFF" fill-rule="evenodd" fill-opacity="0.7"><mask id="browse-filled_svg__b" fill="#FFFFFF" fill-opacity="0.7"><use xlink:href="#browse-filled_svg__a"></use></mask><use fill-rule="nonzero" xlink:href="#browse-filled_svg__a"></use><g mask="url(#browse-filled_svg__b)" fill="#FFFFFF" fill-opacity="0.7"><path d="M0 0h24v24H0z" fill="#FFFFFF" fill-opacity="0.7"></path></g></g></svg>