<svg width="22" height="22" viewBox="0 0 24 24" xmlns="http://www.w3.org/2000/svg" xmlns:xlink="http://www.w3.org/1999/xlink" fill="currentColor" class="flex-shrink-0 align-middle fill-current w-4 h-4"><defs><path d="M11.54 19.197a8.5 8.5 0 003.386-16.282L15.33 2a9.503 9.503 0 015.648 9.36c-.35 4.997-4.505 8.821-9.436 8.837l1.35 1.687a.5.5 0 11-.781.625l-2-2.5a.5.5 0 010-.625l2-2.5a.5.5 0 11.78.625l-1.35 1.688zM5 11.5c0-.268.224-.5.5-.5h6.616c.28 0 .5.224.5.5 0 .268-.224.5-.5.5H5.5c-.28 0-.5-.224-.5-.5zm-1 3c0-.268.228-.5.51-.5h7.98c.288 0 .51.224.51.5a.51.51 0 01-.51.5H4.51a.501.501 0 01-.51-.5zm2-6c0-.268.223-.5.498-.5h5.927c.268 0 .498.224.498.5 0 .268-.223.5-.498.5H6.498A.504.504 0 016 8.5zm3-3a.5.5 0 01.49-.5h3.02c.275 0 .49.224.49.5a.5.5 0 01-.49.5H9.49A.492.492 0 019 5.5zm2-3c0-.268.226-.5.505-.5h.913a.5.5 0 110 1h-.913A.5.5 0 0111 2.5z" id="sort_svg__a"></path><path d="M11.54 19.197a8.5 8.5 0 003.386-16.282L15.33 2a9.503 9.503 0 015.648 9.36c-.35 4.997-4.505 8.821-9.436 8.837l1.35 1.687a.5.5 0 11-.781.625l-2-2.5a.5.5 0 010-.625l2-2.5a.5.5 0 11.78.625l-1.35 1.688zM5 11.5c0-.268.224-.5.5-.5h6.616c.28 0 .5.224.5.5 0 .268-.224.5-.5.5H5.5c-.28 0-.5-.224-.5-.5zm-1 3c0-.268.228-.5.51-.5h7.98c.288 0 .51.224.51.5a.51.51 0 01-.51.5H4.51a.501.501 0 01-.51-.5zm2-6c0-.268.223-.5.498-.5h5.927c.268 0 .498.224.498.5 0 .268-.223.5-.498.5H6.498A.504.504 0 016 8.5zm3-3a.5.5 0 01.49-.5h3.02c.275 0 .49.224.49.5a.5.5 0 01-.49.5H9.49A.492.492 0 019 5.5zm2-3c0-.268.226-.5.505-.5h.913a.5.5 0 110 1h-.913A.5.5 0 0111 2.5z" id="sort_svg__a"></path><path d="M11.54 19.197a8.5 8.5 0 003.386-16.282L15.33 2a9.503 9.503 0 015.648 9.36c-.35 4.997-4.505 8.821-9.436 8.837l1.35 1.687a.5.5 0 11-.781.625l-2-2.5a.5.5 0 010-.625l2-2.5a.5.5 0 11.78.625l-1.35 1.688zM5 11.5c0-.268.224-.5.5-.5h6.616c.28 0 .5.224.5.5 0 .268-.224.5-.5.5H5.5c-.28 0-.5-.224-.5-.5zm-1 3c0-.268.228-.5.51-.5h7.98c.288 0 .51.224.51.5a.51.51 0 01-.51.5H4.51a.501.501 0 01-.51-.5zm2-6c0-.268.223-.5.498-.5h5.927c.268 0 .498.224.498.5 0 .268-.223.5-.498.5H6.498A.504.504 0 016 8.5zm3-3a.5.5 0 01.49-.5h3.02c.275 0 .49.224.49.5a.5.5 0 01-.49.5H9.49A.492.492 0 019 5.5zm2-3c0-.268.226-.5.505-.5h.913a.5.5 0 110 1h-.913A.5.5 0 0111 2.5z" id="sort_svg__a"></path></defs><g fill="#FFFFFF" fill-rule="evenodd"><mask id="sort_svg__b" fill="#FFFFFF"><use xlink:href="#sort_svg__a"></use></mask><use xlink:href="#sort_svg__a"></use><g mask="url(#sort_svg__b)" fill="#FFFFFF"><path d="M0 0h24v24H0z" fill="#FFFFFF"></path></g></g></svg>