<svg viewBox="0 0 5000 200" xmlns:xlink="http://www.w3.org/1999/xlink" xmlns="http://www.w3.org/2000/svg" width="5000" height="200" preserveAspectRatio="none" class="w-full"><g mask="url(&quot;#SvgjsMask1312&quot;)" fill="none" stroke="#FFFFFF" stroke-width="2px" stroke-opacity="0.24"><path d="M-554.566 29c83.396 27.8 250.196 141 417 139 166.796-2 250.196-152 417-149 166.796 3 250.196 166.4 417 164 166.796-2.4 250.196-167.6 417-176 166.796-8.4 250.196 117.6 417 134 166.796 16.4 250.196-51.2 417-52 166.796-.8 250.196 51 417 48 166.796-3 250.196-61.6 417-63 166.796-1.4 250.196 52.2 417 56 166.796 3.8 250.196-49.4 417-37 166.796 12.4 250.196 115.8 417 99 166.796-16.8 250.196-175.6 417-183 166.796-7.4 306.886 136.6 417 146C4976.55 164.4 4973.29 75.8 5000 56" stroke="#FFFFFF" fill="none" stroke-width="2px" stroke-opacity="0.24"></path><path d="M-813.764 171c83.404-31 250.204-145.4 417-155 166.804-9.6 250.204 104.6 417 107 166.804 2.4 250.204-108.4 417-95 166.804 13.4 250.204 148.2 417 162 166.804 13.8 250.204-93.6 417-93 166.804.6 250.204 112 417 96 166.804-16 250.204-176.8 417-176 166.804.8 250.204 168.4 417 180 166.804 11.6 250.204-120.4 417-122 166.804-1.6 250.204 109.8 417 114 166.804 4.2 250.204-86 417-93 166.804-7 250.204 58 417 58 166.804 0 255.044-56.2 417-58 161.954-1.8 314.214 39.2 392.764 49" stroke="#FFFFFF" fill="none" stroke-width="2px" stroke-opacity="0.24"></path></g><defs><mask id="wave_svg__SvgjsMask1312"><path fill="#fff" d="M0 0h5000v200H0z"></path></mask></defs></svg>