<svg xmlns:xlink="http://www.w3.org/1999/xlink" xmlns="http://www.w3.org/2000/svg" viewBox="0 0 24 24" class="w-6 h-6" width="24"  height="24" ><defs><path d="M22 8.757V22H10v-8.391l-3 1.448V22H2V8.737L1.38 9 1 8.049 17.62 1l.38.951-4.099 1.739L23 8.197 22.491 9 22 8.757zm-1-.496l-8.247-4.085L3 8.313v12.721h3V14.46l5-2.414v8.988h10V8.261zM14 18v-5h4v5h-4zm3-1v-3h-2v3h2zM7 3.111H5V7H4V2h4v3.519H7V3.11z" id="home_svg__a"></path><path d="M22 8.757V22H10v-8.391l-3 1.448V22H2V8.737L1.38 9 1 8.049 17.62 1l.38.951-4.099 1.739L23 8.197 22.491 9 22 8.757zm-1-.496l-8.247-4.085L3 8.313v12.721h3V14.46l5-2.414v8.988h10V8.261zM14 18v-5h4v5h-4zm3-1v-3h-2v3h2zM7 3.111H5V7H4V2h4v3.519H7V3.11z" id="home_svg__a"></path><path d="M22 8.757V22H10v-8.391l-3 1.448V22H2V8.737L1.38 9 1 8.049 17.62 1l.38.951-4.099 1.739L23 8.197 22.491 9 22 8.757zm-1-.496l-8.247-4.085L3 8.313v12.721h3V14.46l5-2.414v8.988h10V8.261zM14 18v-5h4v5h-4zm3-1v-3h-2v3h2zM7 3.111H5V7H4V2h4v3.519H7V3.11z" id="home_svg__a"></path></defs><g fill="#FFFFFF" fill-opacity="0.7"><mask id="home_svg__b" fill="#FFFFFF" fill-opacity="0.7"><use href="#home_svg__a"></use></mask><use href="#home_svg__a"></use><g mask="url(#home_svg__b)" fill="#FFFFFF" fill-opacity="0.7"><path d="M0 0h24v24H0z" fill="#FFFFFF" fill-opacity="0.7"></path></g></g></svg>