<svg xmlns:xlink="http://www.w3.org/1999/xlink" xmlns="http://www.w3.org/2000/svg" viewBox="0 0 50 50" fill="currentColor" width="1.5" height="1.5" class="flex-shrink-0 align-middle fill-current"><path d="M29.844 13.094a.994.994 0 00-.782.703c-.105.367.004.758.282 1.015L38.53 24H8.906c-.55.027-.98.496-.953 1.047.027.55.496.98 1.047.953h29.531l-9.187 9.188a1.004 1.004 0 00-.348 1.003c.086.371.379.664.75.75.375.086.762-.05 1.004-.347l10.906-10.875.688-.719-.688-.719L30.75 13.406a1.004 1.004 0 00-.813-.312h-.093z" fill-opacity="0.7" fill="#FFFFFF"></path></svg>