<svg viewBox="0 0 24 24" xmlns="http://www.w3.org/2000/svg" xmlns:xlink="http://www.w3.org/1999/xlink" class="w-6 h-6" width="24"  height="24" ><defs><path d="M8 22a3 3 0 100-6 3 3 0 000 6zm3-5.646V3.667L20 1v5.333l-8 2.37V19a4 4 0 11-1-2.646zm1-8.693l7-2.074V2.339l-7 2.074v3.248z" id="note_svg__a"></path><path d="M8 22a3 3 0 100-6 3 3 0 000 6zm3-5.646V3.667L20 1v5.333l-8 2.37V19a4 4 0 11-1-2.646zm1-8.693l7-2.074V2.339l-7 2.074v3.248z" id="note_svg__a"></path><path d="M8 22a3 3 0 100-6 3 3 0 000 6zm3-5.646V3.667L20 1v5.333l-8 2.37V19a4 4 0 11-1-2.646zm1-8.693l7-2.074V2.339l-7 2.074v3.248z" id="note_svg__a"></path></defs><g fill="none" fill-rule="evenodd"><mask id="note_svg__b" fill="none"><use xlink:href="#note_svg__a"></use></mask><use fill="currentColor" fill-rule="nonzero" xlink:href="#note_svg__a"></use><g mask="url('#b')" fill="none"><path d="M0 0h24v24H0z" fill="none"></path></g></g></svg>