<svg xmlns:xlink="http://www.w3.org/1999/xlink" viewBox="0 0 24 24" xmlns="http://www.w3.org/2000/svg" width="1" height="1" fill="currentColor" class="flex-shrink-0 align-middle fill-current"><path d="M5 5v4h4V5H5zM4 3h6a1 1 0 011 1v6a1 1 0 01-1 1H4a1 1 0 01-1-1V4a1 1 0 011-1zm10 0h6a1 1 0 011 1v6a1 1 0 01-1 1h-6a1 1 0 01-1-1V4a1 1 0 011-1zm1 2v4h4V5h-4zM4 13h6a1 1 0 011 1v6a1 1 0 01-1 1H4a1 1 0 01-1-1v-6a1 1 0 011-1zm1 6h4v-4H5v4zm9-6h6a1 1 0 011 1v6a1 1 0 01-1 1h-6a1 1 0 01-1-1v-6a1 1 0 011-1zm1 6h4v-4h-4v4z"></path></svg>