<svg xmlns:xlink="http://www.w3.org/1999/xlink" xmlns="http://www.w3.org/2000/svg" viewBox="0 0 200 200" class="flex-shrink-0 align-middle fill-current w-4 h-4" width="200"  height="200" ><circle fill="#FFFFFF" cx="100" cy="100" r="100"></circle><path fill="#B6070B" d="M156.9 69.6c-5.3 0-9.6 4.5-9.6 10.1 0 2.5.8 4.7 2.3 6.5-12.1 9.7-35.9 23.1-47.4-10.1 4.3-1 7.5-5 7.5-9.8 0-5.6-4.3-10.1-9.6-10.1s-9.6 4.5-9.6 10.1c0 4.6 2.9 8.4 7 9.7-11.6 33.3-35.1 19.8-47 10 1.4-1.7 2.2-4 2.2-6.4 0-5.6-4.3-10.1-9.6-10.1s-9.6 4.5-9.6 10.1 4.3 10.1 9.6 10.1c1.3 0 2.6-.3 3.7-.8l19.8 54.9s18.3-5 33.3-5c20.8 0 33.2 5 33.2 5L153.3 89c1.1.5 2.3.7 3.5.7 5.3 0 9.6-4.5 9.6-10.1.1-5.5-4.2-10-9.5-10z"></path></svg>