<svg viewBox="0 0 24 24" xmlns="http://www.w3.org/2000/svg" xmlns:xlink="http://www.w3.org/1999/xlink" class="w-6 h-6" width="24"  height="24" ><defs><path d="M4.91 8C4.406 8 4 8.504 4 9.125v6.75c0 .621.407 1.125.91 1.125h8.18c.503 0 .91-.504.91-1.125v-6.75C14 8.504 13.593 8 13.09 8H4.91zM15 10.225C16.089 9.336 17.649 8 18.461 8h.186C19.947 8 21 9.12 21 10.5v4c0 1.38-1.053 2.5-2.353 2.5h-.186c-.812 0-2.372-1.336-3.461-2.225V15.8c0 1.215-.827 2.2-1.846 2.2H4.846C3.826 18 3 17.015 3 15.8V9.2C3 7.985 3.827 7 4.846 7h8.308C14.174 7 15 7.985 15 9.2v1.025zm0 1.158v2.234c1.182.878 2.822 2.383 3.461 2.383h.186c.78 0 1.412-.672 1.412-1.5v-4c0-.828-.632-1.5-1.412-1.5h-.186c-.639 0-2.28 1.505-3.461 2.383zm-4.034 1.876l-2.788 1.333a1 1 0 01-1.431-.92l.048-2.763a1 1 0 011.463-.869l2.74 1.43a1 1 0 01-.032 1.789z" id="video_svg__a"></path><path d="M4.91 8C4.406 8 4 8.504 4 9.125v6.75c0 .621.407 1.125.91 1.125h8.18c.503 0 .91-.504.91-1.125v-6.75C14 8.504 13.593 8 13.09 8H4.91zM15 10.225C16.089 9.336 17.649 8 18.461 8h.186C19.947 8 21 9.12 21 10.5v4c0 1.38-1.053 2.5-2.353 2.5h-.186c-.812 0-2.372-1.336-3.461-2.225V15.8c0 1.215-.827 2.2-1.846 2.2H4.846C3.826 18 3 17.015 3 15.8V9.2C3 7.985 3.827 7 4.846 7h8.308C14.174 7 15 7.985 15 9.2v1.025zm0 1.158v2.234c1.182.878 2.822 2.383 3.461 2.383h.186c.78 0 1.412-.672 1.412-1.5v-4c0-.828-.632-1.5-1.412-1.5h-.186c-.639 0-2.28 1.505-3.461 2.383zm-4.034 1.876l-2.788 1.333a1 1 0 01-1.431-.92l.048-2.763a1 1 0 011.463-.869l2.74 1.43a1 1 0 01-.032 1.789z" id="video_svg__a"></path><path d="M4.91 8C4.406 8 4 8.504 4 9.125v6.75c0 .621.407 1.125.91 1.125h8.18c.503 0 .91-.504.91-1.125v-6.75C14 8.504 13.593 8 13.09 8H4.91zM15 10.225C16.089 9.336 17.649 8 18.461 8h.186C19.947 8 21 9.12 21 10.5v4c0 1.38-1.053 2.5-2.353 2.5h-.186c-.812 0-2.372-1.336-3.461-2.225V15.8c0 1.215-.827 2.2-1.846 2.2H4.846C3.826 18 3 17.015 3 15.8V9.2C3 7.985 3.827 7 4.846 7h8.308C14.174 7 15 7.985 15 9.2v1.025zm0 1.158v2.234c1.182.878 2.822 2.383 3.461 2.383h.186c.78 0 1.412-.672 1.412-1.5v-4c0-.828-.632-1.5-1.412-1.5h-.186c-.639 0-2.28 1.505-3.461 2.383zm-4.034 1.876l-2.788 1.333a1 1 0 01-1.431-.92l.048-2.763a1 1 0 011.463-.869l2.74 1.43a1 1 0 01-.032 1.789z" id="video_svg__a"></path></defs><g fill="none" fill-rule="evenodd"><mask id="video_svg__b" fill="#FFFFFF"><use xlink:href="#video_svg__a"></use></mask><use fill="currentColor" fill-rule="nonzero" xlink:href="#video_svg__a"></use><g mask="url('#b')" fill="none"><path d="M0 0h24v24H0z" fill="none"></path></g></g></svg>