<svg viewBox="0 0 24 24" xmlns="http://www.w3.org/2000/svg" xmlns:xlink="http://www.w3.org/1999/xlink" class="flex-shrink-0 align-middle fill-current w-5 h-5" width="24"  height="24" ><defs><path d="M18.5 6.5h3c.276 0 .5.232.5.5 0 .276-.23.5-.5.5h-3v3c0 .276-.232.5-.5.5-.276 0-.5-.23-.5-.5v-3h-3A.505.505 0 0114 7c0-.276.23-.5.5-.5h3v-3c0-.276.232-.5.5-.5.276 0 .5.23.5.5v3zm-4.5 7c0-.276.23-.5.5-.5h7c.276 0 .5.232.5.5 0 .276-.23.5-.5.5h-7a.505.505 0 01-.5-.5zm0 3c0-.276.23-.5.5-.5h7c.276 0 .5.232.5.5 0 .276-.23.5-.5.5h-7a.505.505 0 01-.5-.5zm-6 3c0-.276.22-.5.498-.5h13.004c.275 0 .498.232.498.5 0 .276-.22.5-.498.5H8.498A.504.504 0 018 19.5zM1.742 5.621c-.004-.887.583-1.203 1.312-.706l9.265 6.318c.729.497.733 1.297-.004 1.796l-9.188 6.223c-.73.495-1.326.182-1.33-.71l-.055-12.92z" id="add-to-playlist_svg__a"></path><path d="M18.5 6.5h3c.276 0 .5.232.5.5 0 .276-.23.5-.5.5h-3v3c0 .276-.232.5-.5.5-.276 0-.5-.23-.5-.5v-3h-3A.505.505 0 0114 7c0-.276.23-.5.5-.5h3v-3c0-.276.232-.5.5-.5.276 0 .5.23.5.5v3zm-4.5 7c0-.276.23-.5.5-.5h7c.276 0 .5.232.5.5 0 .276-.23.5-.5.5h-7a.505.505 0 01-.5-.5zm0 3c0-.276.23-.5.5-.5h7c.276 0 .5.232.5.5 0 .276-.23.5-.5.5h-7a.505.505 0 01-.5-.5zm-6 3c0-.276.22-.5.498-.5h13.004c.275 0 .498.232.498.5 0 .276-.22.5-.498.5H8.498A.504.504 0 018 19.5zM1.742 5.621c-.004-.887.583-1.203 1.312-.706l9.265 6.318c.729.497.733 1.297-.004 1.796l-9.188 6.223c-.73.495-1.326.182-1.33-.71l-.055-12.92z" id="add-to-playlist_svg__a"></path><path d="M18.5 6.5h3c.276 0 .5.232.5.5 0 .276-.23.5-.5.5h-3v3c0 .276-.232.5-.5.5-.276 0-.5-.23-.5-.5v-3h-3A.505.505 0 0114 7c0-.276.23-.5.5-.5h3v-3c0-.276.232-.5.5-.5.276 0 .5.23.5.5v3zm-4.5 7c0-.276.23-.5.5-.5h7c.276 0 .5.232.5.5 0 .276-.23.5-.5.5h-7a.505.505 0 01-.5-.5zm0 3c0-.276.23-.5.5-.5h7c.276 0 .5.232.5.5 0 .276-.23.5-.5.5h-7a.505.505 0 01-.5-.5zm-6 3c0-.276.22-.5.498-.5h13.004c.275 0 .498.232.498.5 0 .276-.22.5-.498.5H8.498A.504.504 0 018 19.5zM1.742 5.621c-.004-.887.583-1.203 1.312-.706l9.265 6.318c.729.497.733 1.297-.004 1.796l-9.188 6.223c-.73.495-1.326.182-1.33-.71l-.055-12.92z" id="add-to-playlist_svg__a"></path></defs><g fill="none" fill-rule="evenodd"><mask id="add-to-playlist_svg__b" fill="#FFFFFF"><use xlink:href="#add-to-playlist_svg__a"></use></mask><use fill="currentColor" xlink:href="#add-to-playlist_svg__a"></use><g mask="url('#b')" fill="none"><path d="M0 0h24v24H0z" fill="none"></path></g></g></svg>