<svg xmlns:xlink="http://www.w3.org/1999/xlink" xmlns="http://www.w3.org/2000/svg" viewBox="0 0 50 50" fill="currentColor" class="w-6 h-6" width="50"  height="50" ><path d="M25-.031c-6.063 0-11.031 4.804-11.031 10.75V23.28c0 5.946 4.969 10.75 11.031 10.75 6.063 0 11.031-4.804 11.031-10.75V10.72c0-5.946-4.968-10.75-11.031-10.75zm0 2.062c4.984 0 8.969 3.883 8.969 8.688V11H28.406c-.55.027-.98.496-.953 1.047.027.55.496.98 1.047.953h5.469v2H28.406c-.55.027-.98.496-.953 1.047.027.55.496.98 1.047.953h5.469v2H28.406c-.55.027-.98.496-.953 1.047.027.55.496.98 1.047.953h5.469v2.281c0 4.805-3.985 8.688-8.969 8.688s-8.969-3.883-8.969-8.688V21H21.5c.36.004.695-.184.879-.496a1.01 1.01 0 000-1.008c-.184-.312-.52-.5-.879-.496h-5.469v-2H21.5c.36.004.695-.184.879-.496a1.01 1.01 0 000-1.008c-.184-.312-.52-.5-.879-.496h-5.469v-2H21.5c.36.004.695-.184.879-.496a1.01 1.01 0 000-1.008c-.184-.312-.52-.5-.879-.496h-5.469v-.281c0-4.805 3.985-8.688 8.969-8.688zM9.812 17.125a.87.87 0 00-.687.875v5c0 7.703 5.547 14.168 12.844 15.594V45h-6.5C13.566 45 12 46.57 12 48.469v1.468h25.875V48.47c0-1.899-1.566-3.469-3.469-3.469h-6.375v-6.406c7.297-1.426 12.844-7.89 12.844-15.594v-5a.874.874 0 00-.875-.875.874.874 0 00-.875.875v5c0 7.8-6.324 14.125-14.125 14.125-7.8 0-14.125-6.324-14.125-14.125v-5a.872.872 0 00-.285-.656.862.862 0 00-.684-.219h-.094zm14.22 21.688c.32.019.644.062.968.062.324 0 .648-.043.969-.063v6.157H24.03zM15.468 47h7.281c.082.02.164.031.25.031h4c.074-.004.148-.011.219-.031h7.187c.64 0 1.067.422 1.282.969h-21.5c.214-.547.636-.969 1.28-.969z" fill-opacity="0.7" fill="#FFFFFF"></path></svg>