<svg viewBox="0 0 24 24" xmlns="http://www.w3.org/2000/svg" xmlns:xlink="http://www.w3.org/1999/xlink" class="w-6 h-6" width="24"  height="24" ><defs><path d="M3 3.991V20.01a.99.99 0 00.991.991H20.01a.99.99 0 00.991-.991V3.99A.99.99 0 0020.009 3H3.99A.99.99 0 003 3.991zm-1 0C2 2.891 2.89 2 3.991 2H20.01C21.109 2 22 2.89 22 3.991V20.01c0 1.1-.89 1.991-1.991 1.991H3.99A1.99 1.99 0 012 20.009V3.99zM7 19a3 3 0 110-6 3 3 0 010 6zm0-1a2 2 0 100-4 2 2 0 000 4zM9 6h1v10H9V6zm6 10a3 3 0 110-6 3 3 0 010 6zm0-1a2 2 0 100-4 2 2 0 000 4zm2-10h1v8h-1V5zM9 5h9v1H9V5z" id="album_svg__a"></path><path d="M3 3.991V20.01a.99.99 0 00.991.991H20.01a.99.99 0 00.991-.991V3.99A.99.99 0 0020.009 3H3.99A.99.99 0 003 3.991zm-1 0C2 2.891 2.89 2 3.991 2H20.01C21.109 2 22 2.89 22 3.991V20.01c0 1.1-.89 1.991-1.991 1.991H3.99A1.99 1.99 0 012 20.009V3.99zM7 19a3 3 0 110-6 3 3 0 010 6zm0-1a2 2 0 100-4 2 2 0 000 4zM9 6h1v10H9V6zm6 10a3 3 0 110-6 3 3 0 010 6zm0-1a2 2 0 100-4 2 2 0 000 4zm2-10h1v8h-1V5zM9 5h9v1H9V5z" id="album_svg__a"></path><path d="M3 3.991V20.01a.99.99 0 00.991.991H20.01a.99.99 0 00.991-.991V3.99A.99.99 0 0020.009 3H3.99A.99.99 0 003 3.991zm-1 0C2 2.891 2.89 2 3.991 2H20.01C21.109 2 22 2.89 22 3.991V20.01c0 1.1-.89 1.991-1.991 1.991H3.99A1.99 1.99 0 012 20.009V3.99zM7 19a3 3 0 110-6 3 3 0 010 6zm0-1a2 2 0 100-4 2 2 0 000 4zM9 6h1v10H9V6zm6 10a3 3 0 110-6 3 3 0 010 6zm0-1a2 2 0 100-4 2 2 0 000 4zm2-10h1v8h-1V5zM9 5h9v1H9V5z" id="album_svg__a"></path></defs><g fill="none" fill-rule="evenodd"><mask id="album_svg__b" fill="none"><use xlink:href="#album_svg__a"></use></mask><use fill="currentColor" fill-rule="nonzero" xlink:href="#album_svg__a"></use><g mask="url('#b')" fill="none"><path d="M0 0h24v24H0z" fill="none"></path></g></g></svg>