<svg xmlns:xlink="http://www.w3.org/1999/xlink" xmlns="http://www.w3.org/2000/svg" viewBox="0 0 24 24" class="w-6 h-6" width="24"  height="24" ><defs><path d="M3 21h18V7H3v14zM2 6h20v16H2V6zm1-1V4h18v1H3zm2-2V2h14v1H5z" id="browse_svg__a"></path><path d="M3 21h18V7H3v14zM2 6h20v16H2V6zm1-1V4h18v1H3zm2-2V2h14v1H5z" id="browse_svg__a"></path><path d="M3 21h18V7H3v14zM2 6h20v16H2V6zm1-1V4h18v1H3zm2-2V2h14v1H5z" id="browse_svg__a"></path></defs><g fill="#FFFFFF" fill-opacity="0.7"><mask id="browse_svg__b" fill="#FFFFFF" fill-opacity="0.7"><use href="#browse_svg__a"></use></mask><use href="#browse_svg__a"></use><g mask="url(#browse_svg__b)" fill="#FFFFFF" fill-opacity="0.7"><path d="M0 0h24v24H0z" fill="#FFFFFF" fill-opacity="0.7"></path></g></g></svg>