<svg xmlns:xlink="http://www.w3.org/1999/xlink" viewBox="0 0 24 24" fill="none" xmlns="http://www.w3.org/2000/svg" class="w-6 h-6" width="24"  height="24" ><mask id="events_svg__a" fill="#FFFFFF" fill-opacity="0.7"><path fill-rule="evenodd" clip-rule="evenodd" d="M7.257 4.015c.66.142 1.372-.086 1.85-.565a2.09 2.09 0 00.525-.89l11.807 11.808a2.089 2.089 0 00-.89.525c-.477.478-.706 1.19-.564 1.85l-.413.413c-.66-.141-1.373.087-1.85.565-.479.478-.707 1.19-.566 1.85l-.413.413c-.66-.14-1.372.087-1.85.566a2.089 2.089 0 00-.525.89L2.561 9.631a2.09 2.09 0 00.89-.525c.478-.478.706-1.19.564-1.85l.413-.413c.66.141 1.373-.087 1.85-.565.479-.478.707-1.19.566-1.85l.413-.414zM2.807 7.05l.708-.707.707-.707c.355.355.96.326 1.35-.064.39-.39.42-.995.064-1.35l.707-.707.707-.707c.355.355.96.326 1.35-.065.39-.39.42-.995.064-1.35l.708-.707.707.707 12.728 12.728.707.707-.707.708c-.355-.355-.96-.327-1.35.064-.39.39-.42.995-.065 1.35l-.707.707-.707.707c-.355-.355-.96-.326-1.35.064-.39.39-.42.995-.064 1.35l-.707.707-.707.707c-.355-.355-.96-.326-1.35.065-.39.39-.42.995-.064 1.35l-.708.707-.707-.707L1.393 9.879l-.707-.707.707-.708c.355.355.96.327 1.35-.064.39-.39.42-.995.065-1.35zm12.021 10.607l-.707.707-.707-.707-7.07-7.071-.708-.707.707-.707 2.829-2.829.707-.707.707.707 7.07 7.071.708.707-.707.707-2.829 2.829zm2.122-3.536l-7.071-7.07L7.05 9.878l7.071 7.07 2.829-2.828zm-4.747-.866l-.743 1.033-.352-1.223-.04-.134-.133-.039-1.223-.352 1.033-.743.157-.113.003-.202.015-1.23.99.728.136.1.146-.053 1.222-.441-.441 1.222-.053.146.1.135.728.991-1.23.015-.202.003-.113.157z" fill="#FFFFFF" fill-opacity="0.7"></path></mask><path d="M7.257 4.015l.209-.977-.532-.114-.384.384.707.707zm2.375-1.454l.707-.707L9.145.66l-.473 1.62.96.28zm11.807 11.807l.28.96 1.621-.473-1.194-1.194-.707.707zm-1.454 2.375l.707.708.384-.385-.114-.532-.977.21zm-.413.413l-.21.978.532.114.385-.385-.707-.707zm-2.416 2.416l.707.707.385-.385-.114-.531-.978.209zm-.413.413l-.209.977.532.114.385-.384-.708-.707zm-2.375 1.454l-.707.707 1.194 1.194.473-1.62-.96-.28zM2.561 9.632l-.28-.96-1.621.473 1.194 1.194.707-.707zm1.454-2.375l-.707-.707-.384.384.114.532.977-.21zm.413-.413l.21-.978-.532-.114-.385.385.707.707zm2.416-2.416l-.707-.707-.385.385.114.531.978-.209zM2.808 7.05L2.1 6.343l-.707.707.707.707.708-.707zm1.414-1.414l.707-.707-.707-.707-.707.707.707.707zm1.414-1.414l-.707-.707-.707.707.707.707.707-.707zM7.05 2.808l.707-.708-.707-.707-.707.707.707.708zm1.414-1.415L7.757.686l-.707.707.707.707.707-.707zm.708-.707l.707-.707-.707-.707-.708.707.708.707zm14.142 14.142l.707.708.707-.708-.707-.707-.707.707zm-.707.708l-.707.707.707.707.707-.707-.707-.707zm-1.415 1.414l.707.707.708-.707-.707-.707-.708.707zm-1.414 1.414l-.707.707.707.707.707-.707-.707-.707zm-1.414 1.414l.707.707.707-.707-.707-.707-.707.707zm-1.414 1.414l-.707.707.707.708.707-.707-.707-.708zm-1.414 1.415l.707.707.707-.707-.707-.707-.707.707zm-.708.707l-.707.707.707.707.708-.707-.708-.707zM.686 9.172l-.707-.708-.707.708.707.707.707-.707zm.707-.708l.707-.707-.707-.707-.707.707.707.707zm12.728 9.9l-.707.707.707.707.707-.707-.707-.707zM5.636 9.879l-.707-.707-.707.707.707.707.707-.707zm4.243-4.243l.707-.707-.707-.707-.707.707.707.707zm8.485 8.485l.707.707.707-.707-.707-.707-.707.707zm-8.485-7.07l.707-.708-.707-.707-.707.707.707.707zm7.07 7.07l.708.707.707-.707-.707-.707-.707.707zM7.05 9.88l-.707-.707-.707.707.707.707.707-.707zm7.071 7.07l-.707.708.707.707.707-.707-.707-.707zm-1.918-3.694l-.812-.584.812.584zm-.743 1.033l-.961.277.57 1.979 1.202-1.672-.811-.584zm-.352-1.223l-.961.277.96-.277zm-.04-.134l.962-.277-.153-.53-.531-.154-.277.961zm-.133-.039l-.277.961.277-.96zm-1.223-.352l-.584-.812-1.672 1.203 1.979.57.277-.96zm1.033-.743l-.584-.812.584.812zm.157-.113l.584.812.41-.295.006-.505-1-.012zm.003-.202l-1-.012 1 .012zm.015-1.23l.592-.806-1.568-1.152-.024 1.946 1 .012zm.99.728l.593-.806-.592.806zm.136.1l-.592.806.43.316.502-.182-.34-.94zm.146-.053l-.34-.94.34.94zm1.222-.441l.94.34.724-2.004-2.003.723.34.94zm-.441 1.222l-.94-.34.94.34zm-.053.146l-.94-.34-.182.502.316.43.806-.592zm.1.135l.806-.592-.806.592zm.728.991l.012 1 1.946-.024-1.152-1.568-.806.592zm-1.23.015l.012 1-.012-1zm-.202.003l-.012-1-.505.006-.294.41.811.584zM7.047 4.993c1.012.217 2.064-.132 2.767-.835L8.4 2.743c-.252.253-.624.36-.934.295l-.419 1.955zm2.767-.835a3.09 3.09 0 00.778-1.317l-1.92-.56a1.09 1.09 0 01-.272.462l1.414 1.415zm-.89-.89l11.808 11.807 1.414-1.414L10.34 1.854 8.925 3.268zm12.235 10.14a3.09 3.09 0 00-1.316.778l1.414 1.414c.125-.125.287-.22.462-.272l-.56-1.92zm-1.316.778c-.704.704-1.053 1.755-.836 2.767l1.955-.419c-.066-.31.042-.682.295-.934l-1.415-1.414zm-.566 1.85l-.412.413 1.414 1.414.413-.412-1.415-1.415zm.504.142c-1.011-.216-2.063.132-2.767.836l1.414 1.414c.253-.252.624-.36.935-.294l.418-1.956zm-2.767.836c-.704.704-1.052 1.756-.836 2.767l1.956-.418c-.066-.31.042-.682.294-.935l-1.414-1.414zm-.565 1.85l-.413.413 1.415 1.415.412-.413-1.414-1.414zm.504.143c-1.012-.217-2.063.132-2.767.835l1.414 1.415c.252-.253.624-.361.934-.295l.419-1.955zm-2.767.835c-.37.37-.635.827-.778 1.317l1.92.56c.051-.175.147-.337.272-.462l-1.414-1.415zm.89.89L3.267 8.925l-1.414 1.414L13.66 22.146l1.414-1.414zM2.84 10.592a3.09 3.09 0 001.317-.778L2.743 8.4a1.09 1.09 0 01-.462.272l.56 1.92zm1.317-.778c.703-.703 1.052-1.755.835-2.767l-1.955.419c.066.31-.042.682-.295.934l1.415 1.414zm.565-1.85l.412-.413-1.414-1.414-.413.413 1.415 1.414zm-.504-.142c1.011.216 2.063-.132 2.767-.836L5.572 5.572c-.253.252-.624.36-.935.294L4.22 7.822zm2.767-.836c.704-.704 1.052-1.756.836-2.767l-1.956.418c.066.31-.042.682-.294.935l1.414 1.414zm.565-1.85l.413-.413L6.55 3.308l-.413.413L7.55 5.135zM3.515 7.756l.707-.707-1.414-1.414-.708.707 1.415 1.414zm.707-.707l.707-.707L3.515 4.93l-.707.707L4.222 7.05zm-.707-.707c.807.808 2.048.652 2.764-.064L4.865 4.865c-.022.02-.036.02-.03.02.005 0 .017 0 .035.006.02.007.041.02.059.038L3.515 6.343zm2.764-.064c.716-.716.872-1.957.064-2.764L4.93 4.929a.164.164 0 01-.038-.059.092.092 0 01-.006-.034c0-.007 0 .007-.02.029l1.414 1.414zm.064-1.35l.707-.707-1.414-1.414-.707.707 1.414 1.414zm.707-.707l.707-.707L6.343 2.1l-.707.708L7.05 4.222zm-.707-.707c.808.807 2.048.652 2.764-.065L7.693 2.036c-.021.021-.035.02-.029.02.004 0 .017 0 .035.007.02.007.04.02.058.037L6.343 3.515zm2.764-.065c.716-.716.872-1.956.065-2.764L7.757 2.1a.164.164 0 01-.037-.058.093.093 0 01-.007-.035c0-.006.001.008-.02.03L9.107 3.45zm.065-1.35l.707-.707L8.464-.02l-.707.707L9.172 2.1zm-.708-.707l.708.707L10.586.686 9.879-.02 8.464 1.393zm.708.707l12.727 12.728 1.415-1.414L10.586.686 9.172 2.1zm12.727 12.728l.708.708 1.414-1.415-.707-.707-1.415 1.414zm.708-.707l-.707.707 1.414 1.415.707-.707-1.414-1.415zm.707.707c-.808-.807-2.048-.651-2.764.065l1.414 1.414c.021-.021.035-.02.029-.02-.004 0-.017 0-.035-.007a.164.164 0 01-.058-.037l1.414-1.415zm-2.764.065c-.717.716-.872 1.956-.065 2.764l1.415-1.414c.017.017.03.039.037.058.007.019.007.03.007.035 0 .006-.001-.008.02-.03l-1.414-1.413zm-.065 1.35l-.707.707 1.414 1.414.707-.707-1.414-1.414zm-.707.707l-.707.707 1.414 1.414.707-.707-1.414-1.414zm.707.707c-.807-.808-2.048-.652-2.764.064l1.414 1.414c.022-.02.036-.02.03-.02-.005 0-.017 0-.035-.006a.164.164 0 01-.059-.038l1.414-1.414zm-2.764.064c-.716.716-.872 1.957-.064 2.764l1.414-1.414c.018.018.03.04.038.059.006.018.007.03.006.034 0 .007 0-.008.02-.029l-1.414-1.414zm-.064 1.35l-.707.707 1.414 1.414.707-.707-1.414-1.414zm-.707.707l-.707.707 1.414 1.415.707-.708-1.414-1.414zm.707.707c-.808-.807-2.048-.652-2.764.065l1.414 1.414c.021-.021.036-.02.029-.02-.004 0-.016 0-.035-.007a.165.165 0 01-.058-.038l1.414-1.414zm-2.764.065c-.716.716-.872 1.956-.065 2.764l1.415-1.415c.017.018.03.04.037.059.007.018.007.03.007.035 0 .006-.001-.008.02-.03l-1.414-1.413zm-.065 1.35l-.707.707 1.415 1.414.707-.707-1.415-1.415zm.708.707l-.708-.707-1.414 1.414.707.707 1.415-1.414zm-.708-.707L2.101 9.171.686 10.586l12.728 12.728 1.414-1.415zM2.101 9.171l-.708-.708L-.02 9.88l.707.707L2.1 9.172zm-.708.707l.707-.707L.686 7.757l-.707.707L1.393 9.88zm-.707-.707c.808.807 2.048.651 2.764-.065L2.036 7.693c-.021.021-.035.02-.029.02.004 0 .017 0 .035.007.02.007.04.02.058.037L.686 9.172zm2.764-.065c.717-.716.872-1.956.065-2.764L2.1 7.757a.165.165 0 01-.037-.058.092.092 0 01-.007-.035c0-.006.001.008-.02.03L3.45 9.106zm11.378 9.964l.708-.707-1.415-1.414-.707.707 1.414 1.414zm-2.12-.707l.706.707 1.414-1.414-.707-.707-1.414 1.414zm-7.072-7.071l7.071 7.07 1.414-1.413-7.07-7.071-1.415 1.414zm-.707-.707l.707.707L7.05 9.879l-.707-.707-1.414 1.414zm.707-2.122l-.707.708 1.414 1.414.707-.707-1.414-1.415zm2.828-2.828L5.636 8.464 7.05 9.88 9.88 7.05 8.464 5.636zm.708-.707l-.708.707L9.88 7.05l.707-.707L9.172 4.93zm2.12.707l-.706-.707-1.414 1.414.707.707 1.414-1.414zm7.072 7.071l-7.071-7.071L9.879 7.05l7.07 7.071 1.415-1.414zm.707.707l-.707-.707-1.414 1.414.707.707 1.414-1.414zm-.707 2.122l.707-.708-1.414-1.414-.707.707 1.414 1.415zm-2.829 2.828l2.829-2.829-1.414-1.414-2.829 2.829 1.415 1.414zM9.172 7.757l7.07 7.071 1.415-1.414-7.071-7.07-1.414 1.413zm-1.415 2.829l2.829-2.829-1.414-1.414-2.829 2.829 1.414 1.414zm7.071 5.657l-7.07-7.071-1.415 1.414 7.071 7.07 1.414-1.413zm1.415-2.829l-2.829 2.829 1.414 1.414 2.829-2.829-1.414-1.414zm-4.852-.743l-.743 1.033 1.623 1.168.744-1.033-1.624-1.168zm1.03 1.34l-.352-1.222-1.922.553.352 1.223 1.922-.553zm-.352-1.222l-.04-.135-1.921.554.039.134 1.922-.553zm-.723-.819l-.135-.039-.553 1.922.134.039.554-1.922zm-.135-.039L9.99 11.58l-.554 1.922 1.223.352.553-1.922zm-.915 1.42l1.033-.742-1.168-1.624-1.033.743 1.168 1.624zm1.033-.742l.157-.114-1.168-1.623-.157.113 1.168 1.624zm.573-.913l.002-.202-2-.024-.002.201 2 .025zm.002-.202l.016-1.23-2-.024-.015 1.23 2 .024zm-1.577-.436l.992.728 1.184-1.611-.991-.729-1.185 1.612zm.992.728l.135.1 1.184-1.612-.135-.1-1.184 1.612zm1.067.234l.145-.052-.68-1.881-.145.052.68 1.881zm.145-.052l1.223-.442-.68-1.88-1.222.44.68 1.882zm-.057-1.722l-.442 1.223 1.881.68.442-1.224-1.881-.679zm-.442 1.223l-.052.145 1.88.68.053-.146-1.88-.68zm.082 1.077l.1.135 1.611-1.184-.099-.135-1.612 1.184zm.1.135l.728.992 1.612-1.185-.729-.991-1.611 1.184zm1.522-.6l-1.23.015.024 2 1.23-.016-.024-2zm-1.23.015l-.202.002.024 2 .203-.003-.025-2zm-1.002.418l-.113.157 1.624 1.168.113-.157-1.623-1.168z" fill="#FFFFFF" mask="url(#events_svg__a)" fill-opacity="0.7"></path><mask id="events_svg__c" maskUnits="userSpaceOnUse" x="0" y="0" width="24" height="24" style="mask-type: alpha;" fill="none"><mask id="events_svg__b" fill="#FFFFFF" fill-opacity="0.7"><path fill-rule="evenodd" clip-rule="evenodd" d="M7.257 4.015c.66.142 1.372-.086 1.85-.565a2.09 2.09 0 00.525-.89l11.807 11.808a2.089 2.089 0 00-.89.525c-.477.478-.706 1.19-.564 1.85l-.413.413c-.66-.141-1.373.087-1.85.565-.479.478-.707 1.19-.566 1.85l-.413.413c-.66-.14-1.372.087-1.85.566a2.089 2.089 0 00-.525.89L2.561 9.631a2.09 2.09 0 00.89-.525c.478-.478.706-1.19.564-1.85l.413-.413c.66.141 1.373-.087 1.85-.565.479-.478.707-1.19.566-1.85l.413-.414zM2.807 7.05l.708-.707.707-.707c.355.355.96.326 1.35-.064.39-.39.42-.995.064-1.35l.707-.707.707-.707c.355.355.96.326 1.35-.065.39-.39.42-.995.064-1.35l.708-.707.707.707 12.728 12.728.707.707-.707.708c-.355-.355-.96-.327-1.35.064-.39.39-.42.995-.065 1.35l-.707.707-.707.707c-.355-.355-.96-.326-1.35.064-.39.39-.42.995-.064 1.35l-.707.707-.707.707c-.355-.355-.96-.326-1.35.065-.39.39-.42.995-.064 1.35l-.708.707-.707-.707L1.393 9.879l-.707-.707.707-.708c.355.355.96.327 1.35-.064.39-.39.42-.995.065-1.35zm12.021 10.607l-.707.707-.707-.707-7.07-7.071-.708-.707.707-.707 2.829-2.829.707-.707.707.707 7.07 7.071.708.707-.707.707-2.829 2.829zm2.122-3.536l-7.071-7.07L7.05 9.878l7.071 7.07 2.829-2.828zm-4.747-.866l-.743 1.033-.352-1.223-.04-.134-.133-.039-1.223-.352 1.033-.743.157-.113.003-.202.015-1.23.99.728.136.1.146-.053 1.222-.441-.441 1.222-.053.146.1.135.728.991-1.23.015-.202.003-.113.157z" fill="#FFFFFF" fill-opacity="0.7"></path></mask><path fill-rule="evenodd" clip-rule="evenodd" d="M7.257 4.015c.66.142 1.372-.086 1.85-.565a2.09 2.09 0 00.525-.89l11.807 11.808a2.089 2.089 0 00-.89.525c-.477.478-.706 1.19-.564 1.85l-.413.413c-.66-.141-1.373.087-1.85.565-.479.478-.707 1.19-.566 1.85l-.413.413c-.66-.14-1.372.087-1.85.566a2.089 2.089 0 00-.525.89L2.561 9.631a2.09 2.09 0 00.89-.525c.478-.478.706-1.19.564-1.85l.413-.413c.66.141 1.373-.087 1.85-.565.479-.478.707-1.19.566-1.85l.413-.414zM2.807 7.05l.708-.707.707-.707c.355.355.96.326 1.35-.064.39-.39.42-.995.064-1.35l.707-.707.707-.707c.355.355.96.326 1.35-.065.39-.39.42-.995.064-1.35l.708-.707.707.707 12.728 12.728.707.707-.707.708c-.355-.355-.96-.327-1.35.064-.39.39-.42.995-.065 1.35l-.707.707-.707.707c-.355-.355-.96-.326-1.35.064-.39.39-.42.995-.064 1.35l-.707.707-.707.707c-.355-.355-.96-.326-1.35.065-.39.39-.42.995-.064 1.35l-.708.707-.707-.707L1.393 9.879l-.707-.707.707-.708c.355.355.96.327 1.35-.064.39-.39.42-.995.065-1.35zm12.021 10.607l-.707.707-.707-.707-7.07-7.071-.708-.707.707-.707 2.829-2.829.707-.707.707.707 7.07 7.071.708.707-.707.707-2.829 2.829zm2.122-3.536l-7.071-7.07L7.05 9.878l7.071 7.07 2.829-2.828zm-4.747-.866l-.743 1.033-.352-1.223-.04-.134-.133-.039-1.223-.352 1.033-.743.157-.113.003-.202.015-1.23.99.728.136.1.146-.053 1.222-.441-.441 1.222-.053.146.1.135.728.991-1.23.015-.202.003-.113.157z" fill="#FFFFFF" fill-opacity="0.7"></path><path d="M7.257 4.015l.209-.977-.532-.114-.384.384.707.707zm2.375-1.454l.707-.707L9.145.66l-.473 1.62.96.28zm11.807 11.807l.28.96 1.621-.473-1.194-1.194-.707.707zm-1.454 2.375l.707.708.384-.385-.114-.532-.977.21zm-.413.413l-.21.978.532.114.385-.385-.707-.707zm-2.416 2.416l.707.707.385-.385-.114-.531-.978.209zm-.413.413l-.209.977.532.114.385-.384-.708-.707zm-2.375 1.454l-.707.707 1.194 1.194.473-1.62-.96-.28zM2.561 9.632l-.28-.96-1.621.473 1.194 1.194.707-.707zm1.454-2.375l-.707-.707-.384.384.114.532.977-.21zm.413-.413l.21-.978-.532-.114-.385.385.707.707zm2.416-2.416l-.707-.707-.385.385.114.531.978-.209zM2.808 7.05L2.1 6.343l-.707.707.707.707.708-.707zm1.414-1.414l.707-.707-.707-.707-.707.707.707.707zm1.414-1.414l-.707-.707-.707.707.707.707.707-.707zM7.05 2.808l.707-.708-.707-.707-.707.707.707.708zm1.414-1.415L7.757.686l-.707.707.707.707.707-.707zm.708-.707l.707-.707-.707-.707-.708.707.708.707zm14.142 14.142l.707.708.707-.708-.707-.707-.707.707zm-.707.708l-.707.707.707.707.707-.707-.707-.707zm-1.415 1.414l.707.707.708-.707-.707-.707-.708.707zm-1.414 1.414l-.707.707.707.707.707-.707-.707-.707zm-1.414 1.414l.707.707.707-.707-.707-.707-.707.707zm-1.414 1.414l-.707.707.707.708.707-.707-.707-.708zm-1.414 1.415l.707.707.707-.707-.707-.707-.707.707zm-.708.707l-.707.707.707.707.708-.707-.708-.707zM.686 9.172l-.707-.708-.707.708.707.707.707-.707zm.707-.708l.707-.707-.707-.707-.707.707.707.707zm12.728 9.9l-.707.707.707.707.707-.707-.707-.707zM5.636 9.879l-.707-.707-.707.707.707.707.707-.707zm4.243-4.243l.707-.707-.707-.707-.707.707.707.707zm8.485 8.485l.707.707.707-.707-.707-.707-.707.707zm-8.485-7.07l.707-.708-.707-.707-.707.707.707.707zm7.07 7.07l.708.707.707-.707-.707-.707-.707.707zM7.05 9.88l-.707-.707-.707.707.707.707.707-.707zm7.071 7.07l-.707.708.707.707.707-.707-.707-.707zm-1.918-3.694l-.812-.584.812.584zm-.743 1.033l-.961.277.57 1.979 1.202-1.672-.811-.584zm-.352-1.223l-.961.277.96-.277zm-.04-.134l.962-.277-.153-.53-.531-.154-.277.961zm-.133-.039l-.277.961.277-.96zm-1.223-.352l-.584-.812-1.672 1.203 1.979.57.277-.96zm1.033-.743l-.584-.812.584.812zm.157-.113l.584.812.41-.295.006-.505-1-.012zm.003-.202l-1-.012 1 .012zm.015-1.23l.592-.806-1.568-1.152-.024 1.946 1 .012zm.99.728l.593-.806-.592.806zm.136.1l-.592.806.43.316.502-.182-.34-.94zm.146-.053l-.34-.94.34.94zm1.222-.441l.94.34.724-2.004-2.003.723.34.94zm-.441 1.222l-.94-.34.94.34zm-.053.146l-.94-.34-.182.502.316.43.806-.592zm.1.135l.806-.592-.806.592zm.728.991l.012 1 1.946-.024-1.152-1.568-.806.592zm-1.23.015l.012 1-.012-1zm-.202.003l-.012-1-.505.006-.294.41.811.584zM7.047 4.993c1.012.217 2.064-.132 2.767-.835L8.4 2.743c-.252.253-.624.36-.934.295l-.419 1.955zm2.767-.835a3.09 3.09 0 00.778-1.317l-1.92-.56a1.09 1.09 0 01-.272.462l1.414 1.415zm-.89-.89l11.808 11.807 1.414-1.414L10.34 1.854 8.925 3.268zm12.235 10.14a3.09 3.09 0 00-1.316.778l1.414 1.414c.125-.125.287-.22.462-.272l-.56-1.92zm-1.316.778c-.704.704-1.053 1.755-.836 2.767l1.955-.419c-.066-.31.042-.682.295-.934l-1.415-1.414zm-.566 1.85l-.412.413 1.414 1.414.413-.412-1.415-1.415zm.504.142c-1.011-.216-2.063.132-2.767.836l1.414 1.414c.253-.252.624-.36.935-.294l.418-1.956zm-2.767.836c-.704.704-1.052 1.756-.836 2.767l1.956-.418c-.066-.31.042-.682.294-.935l-1.414-1.414zm-.565 1.85l-.413.413 1.415 1.415.412-.413-1.414-1.414zm.504.143c-1.012-.217-2.063.132-2.767.835l1.414 1.415c.252-.253.624-.361.934-.295l.419-1.955zm-2.767.835c-.37.37-.635.827-.778 1.317l1.92.56c.051-.175.147-.337.272-.462l-1.414-1.415zm.89.89L3.267 8.925l-1.414 1.414L13.66 22.146l1.414-1.414zM2.84 10.592a3.09 3.09 0 001.317-.778L2.743 8.4a1.09 1.09 0 01-.462.272l.56 1.92zm1.317-.778c.703-.703 1.052-1.755.835-2.767l-1.955.419c.066.31-.042.682-.295.934l1.415 1.414zm.565-1.85l.412-.413-1.414-1.414-.413.413 1.415 1.414zm-.504-.142c1.011.216 2.063-.132 2.767-.836L5.572 5.572c-.253.252-.624.36-.935.294L4.22 7.822zm2.767-.836c.704-.704 1.052-1.756.836-2.767l-1.956.418c.066.31-.042.682-.294.935l1.414 1.414zm.565-1.85l.413-.413L6.55 3.308l-.413.413L7.55 5.135zM3.515 7.756l.707-.707-1.414-1.414-.708.707 1.415 1.414zm.707-.707l.707-.707L3.515 4.93l-.707.707L4.222 7.05zm-.707-.707c.807.808 2.048.652 2.764-.064L4.865 4.865c-.022.02-.036.02-.03.02.005 0 .017 0 .035.006.02.007.041.02.059.038L3.515 6.343zm2.764-.064c.716-.716.872-1.957.064-2.764L4.93 4.929a.164.164 0 01-.038-.059.092.092 0 01-.006-.034c0-.007 0 .007-.02.029l1.414 1.414zm.064-1.35l.707-.707-1.414-1.414-.707.707 1.414 1.414zm.707-.707l.707-.707L6.343 2.1l-.707.708L7.05 4.222zm-.707-.707c.808.807 2.048.652 2.764-.065L7.693 2.036c-.021.021-.035.02-.029.02.004 0 .017 0 .035.007.02.007.04.02.058.037L6.343 3.515zm2.764-.065c.716-.716.872-1.956.065-2.764L7.757 2.1a.164.164 0 01-.037-.058.093.093 0 01-.007-.035c0-.006.001.008-.02.03L9.107 3.45zm.065-1.35l.707-.707L8.464-.02l-.707.707L9.172 2.1zm-.708-.707l.708.707L10.586.686 9.879-.02 8.464 1.393zm.708.707l12.727 12.728 1.415-1.414L10.586.686 9.172 2.1zm12.727 12.728l.708.708 1.414-1.415-.707-.707-1.415 1.414zm.708-.707l-.707.707 1.414 1.415.707-.707-1.414-1.415zm.707.707c-.808-.807-2.048-.651-2.764.065l1.414 1.414c.021-.021.035-.02.029-.02-.004 0-.017 0-.035-.007a.164.164 0 01-.058-.037l1.414-1.415zm-2.764.065c-.717.716-.872 1.956-.065 2.764l1.415-1.414c.017.017.03.039.037.058.007.019.007.03.007.035 0 .006-.001-.008.02-.03l-1.414-1.413zm-.065 1.35l-.707.707 1.414 1.414.707-.707-1.414-1.414zm-.707.707l-.707.707 1.414 1.414.707-.707-1.414-1.414zm.707.707c-.807-.808-2.048-.652-2.764.064l1.414 1.414c.022-.02.036-.02.03-.02-.005 0-.017 0-.035-.006a.164.164 0 01-.059-.038l1.414-1.414zm-2.764.064c-.716.716-.872 1.957-.064 2.764l1.414-1.414c.018.018.03.04.038.059.006.018.007.03.006.034 0 .007 0-.008.02-.029l-1.414-1.414zm-.064 1.35l-.707.707 1.414 1.414.707-.707-1.414-1.414zm-.707.707l-.707.707 1.414 1.415.707-.708-1.414-1.414zm.707.707c-.808-.807-2.048-.652-2.764.065l1.414 1.414c.021-.021.036-.02.029-.02-.004 0-.016 0-.035-.007a.165.165 0 01-.058-.038l1.414-1.414zm-2.764.065c-.716.716-.872 1.956-.065 2.764l1.415-1.415c.017.018.03.04.037.059.007.018.007.03.007.035 0 .006-.001-.008.02-.03l-1.414-1.413zm-.065 1.35l-.707.707 1.415 1.414.707-.707-1.415-1.415zm.708.707l-.708-.707-1.414 1.414.707.707 1.415-1.414zm-.708-.707L2.101 9.171.686 10.586l12.728 12.728 1.414-1.415zM2.101 9.171l-.708-.708L-.02 9.88l.707.707L2.1 9.172zm-.708.707l.707-.707L.686 7.757l-.707.707L1.393 9.88zm-.707-.707c.808.807 2.048.651 2.764-.065L2.036 7.693c-.021.021-.035.02-.029.02.004 0 .017 0 .035.007.02.007.04.02.058.037L.686 9.172zm2.764-.065c.717-.716.872-1.956.065-2.764L2.1 7.757a.165.165 0 01-.037-.058.092.092 0 01-.007-.035c0-.006.001.008-.02.03L3.45 9.106zm11.378 9.964l.708-.707-1.415-1.414-.707.707 1.414 1.414zm-2.12-.707l.706.707 1.414-1.414-.707-.707-1.414 1.414zm-7.072-7.071l7.071 7.07 1.414-1.413-7.07-7.071-1.415 1.414zm-.707-.707l.707.707L7.05 9.879l-.707-.707-1.414 1.414zm.707-2.122l-.707.708 1.414 1.414.707-.707-1.414-1.415zm2.828-2.828L5.636 8.464 7.05 9.88 9.88 7.05 8.464 5.636zm.708-.707l-.708.707L9.88 7.05l.707-.707L9.172 4.93zm2.12.707l-.706-.707-1.414 1.414.707.707 1.414-1.414zm7.072 7.071l-7.071-7.071L9.879 7.05l7.07 7.071 1.415-1.414zm.707.707l-.707-.707-1.414 1.414.707.707 1.414-1.414zm-.707 2.122l.707-.708-1.414-1.414-.707.707 1.414 1.415zm-2.829 2.828l2.829-2.829-1.414-1.414-2.829 2.829 1.415 1.414zM9.172 7.757l7.07 7.071 1.415-1.414-7.071-7.07-1.414 1.413zm-1.415 2.829l2.829-2.829-1.414-1.414-2.829 2.829 1.414 1.414zm7.071 5.657l-7.07-7.071-1.415 1.414 7.071 7.07 1.414-1.413zm1.415-2.829l-2.829 2.829 1.414 1.414 2.829-2.829-1.414-1.414zm-4.852-.743l-.743 1.033 1.623 1.168.744-1.033-1.624-1.168zm1.03 1.34l-.352-1.222-1.922.553.352 1.223 1.922-.553zm-.352-1.222l-.04-.135-1.921.554.039.134 1.922-.553zm-.723-.819l-.135-.039-.553 1.922.134.039.554-1.922zm-.135-.039L9.99 11.58l-.554 1.922 1.223.352.553-1.922zm-.915 1.42l1.033-.742-1.168-1.624-1.033.743 1.168 1.624zm1.033-.742l.157-.114-1.168-1.623-.157.113 1.168 1.624zm.573-.913l.002-.202-2-.024-.002.201 2 .025zm.002-.202l.016-1.23-2-.024-.015 1.23 2 .024zm-1.577-.436l.992.728 1.184-1.611-.991-.729-1.185 1.612zm.992.728l.135.1 1.184-1.612-.135-.1-1.184 1.612zm1.067.234l.145-.052-.68-1.881-.145.052.68 1.881zm.145-.052l1.223-.442-.68-1.88-1.222.44.68 1.882zm-.057-1.722l-.442 1.223 1.881.68.442-1.224-1.881-.679zm-.442 1.223l-.052.145 1.88.68.053-.146-1.88-.68zm.082 1.077l.1.135 1.611-1.184-.099-.135-1.612 1.184zm.1.135l.728.992 1.612-1.185-.729-.991-1.611 1.184zm1.522-.6l-1.23.015.024 2 1.23-.016-.024-2zm-1.23.015l-.202.002.024 2 .203-.003-.025-2zm-1.002.418l-.113.157 1.624 1.168.113-.157-1.623-1.168z" fill="#FFFFFF" mask="url(#events_svg__b)" fill-opacity="0.7"></path></mask></svg>